<?xml version="1.0" ?>
<!-- Uploaded to: SVG Repo, www.svgrepo.com, Generator: SVG Repo Mixer Tools -->
<svg width="800px" height="800px" viewBox="0 0 512 512" version="1.1" xml:space="preserve" xmlns="http://www.w3.org/2000/svg" xmlns:xlink="http://www.w3.org/1999/xlink">
<style type="text/css">
	.st0{display:none;}
	.st1{fill:#FFE2D2;}
	.st2{fill:#FFDE83;}
	.st3{fill:#F57070;}
	.st4{fill:#DBDBEF;}
	.st5{fill:#BCE2FF;}
	.st6{fill:#48446D;}
	.st7{fill:#6E78FF;}
	.st8{fill:#FFBE83;}
	.st9{fill:#F5949E;}
	.st10{fill:#D0FF67;}
	.st11{fill:#C69C6D;}
	.st12{fill:#C5BDD3;}
	.st13{fill:#FFE2B8;}
	.st14{fill:#F54670;}
</style>
<g class="st0" id="Layer_1"/>
<g id="Layer_2">
<g>
<path class="st3" d="M263.69,73.82c-9.22-10.04-21.85-15.83-35.58-16.29c-16.45-0.55-32.28,6.95-42.31,20.06    c-1.31,1.7-3.32,2.72-5.47,2.75c-2.16,0.04-4.18-0.93-5.53-2.6c-10.4-12.82-26.42-19.87-42.86-18.85    c-13.71,0.84-26.18,6.99-35.11,17.29c-9.22,10.64-13.65,24.4-12.49,38.75c2.35,28.95,23.64,61.54,63.28,96.85    c0.19,0.14,0.35,0.27,0.51,0.41c0.39,0.34,0.79,0.66,1.19,0.97l0.67,0.53c0.77,0.62,1.5,1.2,2.19,1.69    c0.58,0.41,1.16,0.78,1.75,1.15l0.2,0.13c0.72,0.46,1.56,1,2.39,1.47c0.65,0.37,1.3,0.71,1.96,1.04c0.89,0.46,1.77,0.88,2.62,1.25    c0.63,0.28,1.26,0.55,1.9,0.8c0.87,0.34,1.8,0.67,2.87,1.02c0.49,0.15,0.97,0.3,1.45,0.45c2.24,0.68,3.99,2.44,4.66,4.69    s0.17,4.68-1.33,6.49l-3.43,4.11c-0.82,0.99-0.55,1.98-0.32,2.48c0.24,0.5,0.82,1.34,2.11,1.34h29.08    c-0.88-2.64-0.11-5.67,2.16-7.56c1.98-1.65,4.59-2.01,6.85-1.2c0.17,0.06,0.34,0.11,0.5,0.18c0.15,0.07,0.3,0.15,0.45,0.23    c3.1-3.93,5.98-7.68,8.82-11.46c0,0,0-0.01,0.01-0.01c-0.14-0.1-0.28-0.18-0.41-0.29c-0.13-0.1-0.24-0.23-0.37-0.35    c-0.08-0.08-0.16-0.15-0.24-0.23c-2.62-2.84-2.44-7.27,0.4-9.89c0.16-0.15,0.32-0.29,0.49-0.42    c38.63-36.41,58.99-69.58,60.52-98.59C278.03,97.83,273.2,84.2,263.69,73.82z M155.52,102.38c-3.01,2.44-7.41,1.98-9.85-1.03    c-2.7-3.33-6.71-5.19-10.9-5.07c-3.73,0.11-6.88,1.57-9.38,4.36c-2.72,3.03-4.02,7.03-3.68,11.26c0.31,3.85-2.56,7.23-6.41,7.54    c-0.19,0.02-0.38,0.03-0.57,0.03c-3.61,0-6.68-2.78-6.97-6.44c-0.66-8.1,1.9-15.82,7.21-21.74c3.55-3.96,9.8-8.73,19.4-9    c0.27-0.01,0.53-0.01,0.8-0.01c8.3,0,16.09,3.74,21.38,10.26C158.98,95.54,158.52,99.95,155.52,102.38z"/>
<path class="st3" d="M417.72,195.73c-6.86-7.41-16.15-11.6-26.16-11.79h-0.73c-11.62,0-22.31,5.28-29.42,14.58    c-1.3,1.7-3.31,2.71-5.46,2.75c-2.17,0.02-4.19-0.93-5.54-2.6c-7.64-9.43-18.96-14.42-31.04-13.69    c-10.11,0.61-19.24,5.11-25.7,12.68c-6.73,7.88-9.87,18.11-8.83,28.82c1.22,12.56,7.37,26.26,18.26,40.72    c2.2,2.91,1.78,6.97-0.87,9.37c-0.13,0.11-0.25,0.23-0.38,0.33c-0.04,0.04-0.08,0.07-0.12,0.1c-0.09,0.07-0.19,0.13-0.29,0.19    c0.01,0.01,0.02,0.02,0.02,0.03c2.06,2.51,4.63,5.36,7.63,8.47c0.02,0.01,0.03,0.03,0.05,0.05c0.1-0.14,0.19-0.27,0.31-0.4    c0.08-0.11,0.18-0.21,0.28-0.31c0.02-0.02,0.04-0.04,0.06-0.06c0.31-0.3,0.64-0.58,1.01-0.81c0.38-0.26,0.78-0.47,1.21-0.65    c0.42-0.17,0.86-0.31,1.31-0.4c0.9-0.18,1.83-0.18,2.73,0c0.45,0.09,0.89,0.23,1.31,0.4c0.42,0.18,0.83,0.39,1.21,0.65    c0.38,0.25,0.74,0.54,1.06,0.87c0.33,0.32,0.62,0.68,0.87,1.06c0.26,0.38,0.47,0.79,0.65,1.21c0.17,0.42,0.31,0.86,0.4,1.31    s0.13,0.91,0.13,1.37c0,0.45-0.04,0.91-0.13,1.37c-0.09,0.44-0.23,0.88-0.4,1.3c-0.18,0.43-0.39,0.83-0.65,1.21    c-0.2,0.32-0.44,0.6-0.69,0.88c-0.06,0.06-0.12,0.13-0.18,0.19c-0.06,0.06-0.12,0.12-0.18,0.16c-0.12,0.12-0.25,0.23-0.38,0.33    c0.02,0.01,0.03,0.03,0.04,0.04c2.99,2.76,5.49,5,7.07,6.39c0,0,0,0,0.01,0c0.11-0.12,0.2-0.26,0.32-0.38s0.26-0.22,0.38-0.33    c2.38-2.1,5.96-2.39,8.66-0.47c0.36,0.26,3.76,2.65,5.96,4.2l30.98-0.87c0.07-0.03,0.14-0.06,0.2-0.08l0.19-0.08    c0.52-0.24,1.14-0.56,1.77-0.91c0.48-0.26,0.95-0.52,1.42-0.8c0.57-0.35,1.13-0.72,1.68-1.1l0.13-0.09    c0.43-0.29,0.86-0.58,1.27-0.89c0.5-0.38,1.04-0.83,1.6-1.31l0.46-0.38c0.28-0.23,0.55-0.46,0.82-0.7    c0.13-0.13,0.26-0.24,0.4-0.36c28.81-27.17,44.06-51.83,45.34-73.3C428.39,213.62,424.72,203.31,417.72,195.73z M338.16,217.61    c-3,2.44-7.41,1.98-9.85-1.03c-1.66-2.04-4.08-3.22-6.65-3.22h-0.24c-2.37,0.07-4.35,0.99-5.92,2.75    c-1.75,1.95-2.6,4.53-2.37,7.28c0.31,3.85-2.56,7.23-6.41,7.54c-0.2,0.02-0.39,0.03-0.58,0.03c-3.61,0-6.67-2.78-6.97-6.44    c-0.53-6.61,1.56-12.92,5.9-17.76c4.12-4.59,9.78-7.22,15.93-7.39c0.21-0.01,0.43-0.01,0.66-0.01c6.81,0,13.2,3.06,17.53,8.41    C341.62,210.77,341.16,215.18,338.16,217.61z"/>
<path class="st6" d="M291.25,112.95c-1.73,32.75-23.6,69.13-65,108.14c-0.21,0.18-0.4,0.35-0.6,0.51    c-2.51,2.23-6.17,2.31-8.77,0.38c-0.14-0.1-0.28-0.18-0.41-0.29c-0.13-0.1-0.24-0.23-0.37-0.35c-0.08-0.08-0.16-0.15-0.24-0.23    c-2.62-2.84-2.44-7.27,0.4-9.89c0.16-0.15,0.32-0.29,0.49-0.42c38.63-36.41,58.99-69.58,60.52-98.59    c0.76-14.38-4.07-28.01-13.58-38.39c-9.22-10.04-21.85-15.83-35.58-16.29c-16.45-0.55-32.28,6.95-42.31,20.06    c-1.31,1.7-3.32,2.72-5.47,2.75c-2.16,0.04-4.18-0.93-5.53-2.6c-10.4-12.82-26.42-19.87-42.86-18.85    c-13.71,0.84-26.18,6.99-35.11,17.29c-9.22,10.64-13.65,24.4-12.49,38.75c2.35,28.95,23.64,61.54,63.28,96.85    c0.19,0.14,0.35,0.27,0.51,0.41c0.39,0.34,0.79,0.66,1.19,0.97l0.67,0.53c0.77,0.62,1.5,1.2,2.19,1.69    c0.58,0.41,1.16,0.78,1.75,1.15l0.2,0.13c0.72,0.46,1.56,1,2.39,1.47c0.65,0.37,1.3,0.71,1.96,1.04c0.89,0.46,1.77,0.88,2.62,1.25    c0.63,0.28,1.26,0.55,1.9,0.8c0.87,0.34,1.8,0.67,2.87,1.02c0.49,0.15,0.97,0.3,1.45,0.45c2.24,0.68,3.99,2.44,4.66,4.69    s0.17,4.68-1.33,6.49l-3.43,4.11c-0.82,0.99-0.55,1.98-0.32,2.48c0.24,0.5,0.82,1.34,2.11,1.34h29.08    c-0.88-2.64-0.11-5.67,2.16-7.56c1.98-1.65,4.59-2.01,6.85-1.2c0.17,0.06,0.34,0.11,0.5,0.18c0.15,0.07,0.3,0.15,0.45,0.23    c0.77,0.41,1.47,0.97,2.06,1.68c3.17,3.8,3.83,8.94,1.73,13.41c-2.09,4.48-6.46,7.26-11.41,7.26h-7.86    c9.1,20.83,2,36.83-6.41,47.12c-0.16,0.19-0.33,0.38-0.5,0.55c-11.06,10.89-10.96,20.98,0.33,33.74c0.1,0.12,0.21,0.24,0.3,0.37    c4.11,5.34,7.09,11.44,8.86,18.13c0.99,3.73-1.23,7.56-4.97,8.56c-0.6,0.15-1.21,0.23-1.8,0.23c-3.1,0-5.93-2.07-6.76-5.21    c-1.3-4.88-3.35-9.13-6.29-13c-16.02-18.24-15.94-36.38,0.22-52.51c9.32-11.57,9.77-23.72,1.33-37.98h-7.87    c-6.4,0-12.07-3.6-14.79-9.4c-2.09-4.47-2.06-9.45-0.06-13.75c-0.68-0.32-1.36-0.66-2.05-1.01c-0.84-0.43-1.67-0.87-2.5-1.33    c-1.13-0.64-2.17-1.31-3.05-1.87l-0.19-0.12c-0.77-0.5-1.54-0.99-2.29-1.53c-1.01-0.71-1.93-1.44-2.81-2.15l-0.6-0.47    c-0.57-0.45-1.12-0.89-1.67-1.36c-0.22-0.17-0.4-0.32-0.58-0.48c-42.49-37.83-65.38-73.58-68.03-106.26    c-1.47-18.13,4.16-35.56,15.86-49.06c11.41-13.17,27.33-21.01,44.82-22.1c18.2-1.12,35.98,5.5,49.02,17.96    c12.68-12.82,30.26-19.95,48.49-19.33c17.52,0.59,33.65,7.98,45.43,20.82C286.08,77.53,292.21,94.78,291.25,112.95z"/>
<path class="st6" d="M155.52,102.38c-3.01,2.44-7.41,1.98-9.85-1.03c-2.7-3.33-6.71-5.19-10.9-5.07    c-3.73,0.11-6.88,1.57-9.38,4.36c-2.72,3.03-4.02,7.03-3.68,11.26c0.31,3.85-2.56,7.23-6.41,7.54c-0.19,0.02-0.38,0.03-0.57,0.03    c-3.61,0-6.68-2.78-6.97-6.44c-0.66-8.1,1.9-15.82,7.21-21.74c3.55-3.96,9.8-8.73,19.4-9c0.27-0.01,0.53-0.01,0.8-0.01    c8.3,0,16.09,3.74,21.38,10.26C158.98,95.54,158.52,99.95,155.52,102.38z"/>
<path class="st6" d="M187.49,424.25c1.93-6.92,4.11-14.76,5.85-22.35c0.87-3.77-1.49-7.53-5.26-8.39    c-3.76-0.87-7.52,1.49-8.38,5.26c-1.65,7.18-3.76,14.76-5.63,21.47c-4.42,12.4-4.45,26.48-0.1,43.04    c0.83,3.14,3.66,5.22,6.77,5.22c0.59,0,1.19-0.07,1.78-0.23c3.74-0.98,5.98-4.81,4.99-8.55c-3.63-13.83-3.69-25.27-0.18-34.97    C187.39,424.58,187.44,424.42,187.49,424.25z"/>
<path class="st6" d="M196.9,379.27c0.01-0.02,0.01-0.04,0.01-0.06c0.01-0.02,0.01-0.04,0.01-0.06c0.63-3.79-1.91-7.45-5.7-8.1    c-3.8-0.65-7.41,1.95-8.09,5.73l-0.01,0.02v0.04c0,0,0,0-0.01,0.01v0.05c-0.63,3.79,1.91,7.45,5.71,8.1    c0.39,0.07,0.78,0.1,1.16,0.1C193.32,385.1,196.29,382.65,196.9,379.27z"/>
<path class="st6" d="M441.74,224.83c-1.49,25.19-18.26,53.03-49.82,82.77c-0.15,0.14-0.32,0.29-0.49,0.43    c-0.41,0.37-0.84,0.73-1.26,1.08l-0.38,0.32c-0.69,0.58-1.4,1.19-2.21,1.8c-0.6,0.45-1.21,0.86-1.82,1.28l-0.11,0.08    c-0.66,0.45-1.46,0.99-2.33,1.51c-0.64,0.39-1.3,0.76-1.95,1.12c-0.87,0.47-1.73,0.91-2.57,1.31c-0.37,0.18-0.74,0.33-1.12,0.47    h-0.01c-1.01,0.59-2.15,0.92-3.32,0.95l-6.93,0.19c6.24,15.79,0.72,27.99-5.77,35.93c-0.15,0.19-0.32,0.37-0.5,0.55    c-6.5,6.4-8.93,12.81,0.33,23.27c0.1,0.12,0.21,0.25,0.31,0.38c10.97,14.28,9.2,32.05,6.92,44.18c-0.64,3.36-3.57,5.7-6.87,5.71    c-0.43,0-0.87-0.04-1.31-0.13c-3.8-0.71-6.3-4.37-5.58-8.17c2.85-15.17,1.58-25.32-4.13-32.89    c-12.59-14.37-12.51-29.28,0.21-42.04c4.19-5.21,8.47-13.44,1.09-26.35l-12.54,0.35c-0.07,0.01-0.13,0.01-0.2,0.01    c-0.98,0-1.94-0.21-2.84-0.61c-0.78-0.34-0.8-0.35-9.1-6.25c-3.15-2.24-3.89-6.61-1.65-9.76c0.12-0.17,0.26-0.31,0.4-0.47    c0.11-0.12,0.2-0.26,0.32-0.38s0.26-0.22,0.38-0.33c2.38-2.1,5.96-2.39,8.66-0.47c0.36,0.26,3.76,2.65,5.96,4.2l30.98-0.87    c0.07-0.03,0.14-0.06,0.2-0.08l0.19-0.08c0.52-0.24,1.14-0.56,1.77-0.91c0.48-0.26,0.95-0.52,1.42-0.8    c0.57-0.35,1.13-0.72,1.68-1.1l0.13-0.09c0.43-0.29,0.86-0.58,1.27-0.89c0.5-0.38,1.04-0.83,1.6-1.31l0.46-0.38    c0.28-0.23,0.55-0.46,0.82-0.7c0.13-0.13,0.26-0.24,0.4-0.36c28.81-27.17,44.06-51.83,45.34-73.3    c0.62-10.38-3.05-20.69-10.05-28.27c-6.86-7.41-16.15-11.6-26.16-11.79h-0.73c-11.62,0-22.31,5.28-29.42,14.58    c-1.3,1.7-3.31,2.71-5.46,2.75c-2.17,0.02-4.19-0.93-5.54-2.6c-7.64-9.43-18.96-14.42-31.04-13.69    c-10.11,0.61-19.24,5.11-25.7,12.68c-6.73,7.88-9.87,18.11-8.83,28.82c1.22,12.56,7.37,26.26,18.26,40.72    c2.2,2.91,1.78,6.97-0.87,9.37c-0.13,0.11-0.25,0.23-0.38,0.33c-0.04,0.04-0.08,0.07-0.12,0.1c-0.09,0.07-0.19,0.13-0.29,0.19    c-3.07,2.09-7.26,1.43-9.52-1.57c-12.47-16.55-19.54-32.63-21.01-47.79c-1.41-14.52,2.89-28.47,12.11-39.27    c8.96-10.48,21.56-16.71,35.51-17.55c13.69-0.83,27.08,3.94,37.16,12.97c9.67-9.25,22.47-14.29,36.13-14.03    c13.86,0.26,26.71,6.04,36.18,16.28C437.58,196.59,442.59,210.66,441.74,224.83z"/>
<path class="st6" d="M321.68,289.98c0,0.45-0.04,0.91-0.13,1.37c-0.09,0.44-0.23,0.88-0.4,1.3c-0.18,0.43-0.39,0.83-0.65,1.21    c-0.2,0.32-0.44,0.6-0.69,0.88c-0.06,0.06-0.12,0.13-0.18,0.19c-0.06,0.06-0.12,0.12-0.18,0.16c-0.12,0.12-0.25,0.23-0.38,0.33    c-0.16,0.14-0.33,0.26-0.5,0.38c-0.38,0.25-0.79,0.47-1.21,0.64c-0.42,0.18-0.86,0.31-1.31,0.4c-0.45,0.09-0.91,0.14-1.37,0.14    c-0.45,0-0.91-0.05-1.36-0.14c-0.45-0.09-0.89-0.22-1.31-0.4c-0.43-0.17-0.83-0.39-1.21-0.64c-0.39-0.26-0.74-0.55-1.07-0.87    c-0.32-0.33-0.61-0.68-0.87-1.07c-0.25-0.38-0.46-0.78-0.64-1.21c-0.17-0.42-0.31-0.86-0.4-1.3c-0.09-0.46-0.14-0.92-0.14-1.37    c0-0.46,0.05-0.92,0.14-1.37c0.09-0.45,0.23-0.89,0.4-1.31c0.18-0.42,0.39-0.83,0.64-1.21c0.08-0.12,0.19-0.24,0.28-0.35    c0.1-0.14,0.19-0.27,0.31-0.4c0.08-0.11,0.18-0.21,0.28-0.31c0.02-0.02,0.04-0.04,0.06-0.06c0.31-0.3,0.64-0.58,1.01-0.81    c0.38-0.26,0.78-0.47,1.21-0.65c0.42-0.17,0.86-0.31,1.31-0.4c0.9-0.18,1.83-0.18,2.73,0c0.45,0.09,0.89,0.23,1.31,0.4    c0.42,0.18,0.83,0.39,1.21,0.65c0.38,0.25,0.74,0.54,1.06,0.87c0.33,0.32,0.62,0.68,0.87,1.06c0.26,0.38,0.47,0.79,0.65,1.21    c0.17,0.42,0.31,0.86,0.4,1.31S321.68,289.52,321.68,289.98z"/>
<path class="st6" d="M338.16,217.61c-3,2.44-7.41,1.98-9.85-1.03c-1.66-2.04-4.08-3.22-6.65-3.22h-0.24    c-2.37,0.07-4.35,0.99-5.92,2.75c-1.75,1.95-2.6,4.53-2.37,7.28c0.31,3.85-2.56,7.23-6.41,7.54c-0.2,0.02-0.39,0.03-0.58,0.03    c-3.61,0-6.67-2.78-6.97-6.44c-0.53-6.61,1.56-12.92,5.9-17.76c4.12-4.59,9.78-7.22,15.93-7.39c0.21-0.01,0.43-0.01,0.66-0.01    c6.81,0,13.2,3.06,17.53,8.41C341.62,210.77,341.16,215.18,338.16,217.61z"/>
</g>
</g>
</svg>